<svg width="89" height="37" viewBox="0 0 89 37" fill="none" xmlns="http://www.w3.org/2000/svg">
<rect width="89.0001" height="37" fill="black" fill-opacity="0"/>
<path fill-rule="evenodd" clip-rule="evenodd" d="M89.0001 23.5352V22.1241H83.4651L88.8293 14.4825V13.365H81.3238V14.7899H86.6452L81.2882 22.3895V23.5352H89.0001ZM32.6505 9.26575L16.2931 0L0 9.26575V27.8604L16.2931 37L32.6505 27.8604L27.8206 25.1499L16.6794 31.5465V18.6805L28.0864 11.8577L28.0723 11.835L32.6505 9.26575ZM15.9066 18.2563V31.549L4.63672 25.1499V11.9762L16.2931 5.60986L27.0852 11.5701L15.9066 18.2563ZM32.8688 13.365V23.5352H35.8496C36.7839 23.5352 37.6116 23.3372 38.3325 22.9414C39.0581 22.5455 39.6154 21.9821 40.0043 21.251C40.3979 20.5199 40.5948 19.6724 40.5948 18.7085V18.1986C40.5948 17.2487 40.4004 16.4058 40.0115 15.67C39.6226 14.9342 39.0724 14.3661 38.361 13.9657C37.6543 13.5652 36.8433 13.365 35.9279 13.365H32.8688ZM34.6687 22.1241V14.7899H35.9279C36.8574 14.7899 37.5665 15.0809 38.0551 15.663C38.5436 16.2451 38.7878 17.0879 38.7878 18.1915V18.7573C38.7783 19.8424 38.5198 20.6759 38.0123 21.2579C37.5096 21.8354 36.7864 22.1241 35.8425 22.1241H34.6687ZM44.0167 21.1672L43.1772 23.5352H41.3063L45.219 13.365H46.834L50.7539 23.5352H48.8757L48.0292 21.1672H44.0167ZM47.524 19.7422L46.0229 15.5233L44.5219 19.7422H47.524ZM55.3354 14.7899H58.5653V13.365H50.3484V14.7899H53.5498V23.5352H55.3354V14.7899ZM64.8757 21.1672H60.8633L60.0237 23.5352H58.1527L62.0656 13.365H63.6805L67.6004 23.5352H65.7223L64.8757 21.1672ZM61.3683 19.7422H64.3705L62.8694 15.5233L61.3683 19.7422ZM74.5084 13.365L71.8761 21.3208L69.2723 13.365H67.3016L71.0153 23.5352H72.7582L76.4861 13.365H74.5084ZM79.5594 23.5352H77.7667V13.365H79.5594V23.5352Z" fill="#215E8C"/>
</svg>
