<?xml version="1.0" encoding="UTF-8" standalone="no"?>
<!-- Created with Keyshape -->
<svg xmlns="http://www.w3.org/2000/svg" width="600" height="210" viewBox="0 0 600 210" clip-rule="evenodd" fill-rule="evenodd" stroke-linejoin="round" stroke-miterlimit="2" style="white-space: preserve-spaces;">
    <style>
@keyframes Text_t { 0% { transform: translate(-210.992px,-194.833px) scale(0.857697,0.857698); } 44.4444% { transform: translate(-210.992px,-194.833px) scale(0.857697,0.857698); animation-timing-function: cubic-bezier(0,0,0,1); } 100% { transform: translate(-253.657px,-194.915px) scale(0.857697,0.857698); } }
@keyframes Text_o { 0% { opacity: 0; } 44.4444% { opacity: 0; animation-timing-function: cubic-bezier(0,0,0,1); } 100% { opacity: 1; } }
@keyframes Arrow_t { 0% { transform: translate(-410.105px,-270.547px) scale(1.134,1.13523); } 22.2222% { transform: translate(-410.105px,-270.547px) scale(1.134,1.13523); animation-timing-function: cubic-bezier(0,0,0.58,1); } 66.6666% { transform: translate(-386.953px,-293.699px) scale(1.134,1.13523); } 100% { transform: translate(-386.953px,-293.699px) scale(1.134,1.13523); } }
@keyframes Arrow_o { 0% { opacity: 0; } 22.2222% { opacity: 0; } 77.7778% { opacity: 1; } 100% { opacity: 1; } }
@keyframes Logo_t { 0% { transform: translate(100.69px,105px) rotate(60deg) scale(0.875003,0.875003) translate(-519.715px,-300.872px); animation-timing-function: cubic-bezier(0,0,0.58,1); } 55.5555% { transform: translate(100.69px,105px) rotate(0deg) scale(0.875003,0.875003) translate(-519.715px,-300.872px); } 100% { transform: translate(100.69px,105px) rotate(0deg) scale(0.875003,0.875003) translate(-519.715px,-300.872px); } }
@keyframes Logo_o { 0% { opacity: 0; } 55.5556% { opacity: 1; } 100% { opacity: 1; } }
    </style>
    <g id="Text" opacity="0" transform="translate(-210.992,-194.833) scale(0.857697,0.857698)" style="animation: 0.9s linear both Text_t, 0.9s linear both Text_o;">
        <g transform="translate(578,391.292) scale(122.421,122.421)">
            <path d="M0.075,-0.712L0.324,-0.712C0.421,-0.711,0.493,-0.671,0.541,-0.592C0.558,-0.565,0.569,-0.537,0.574,-0.508C0.577,-0.479,0.579,-0.428,0.579,-0.356C0.579,-0.279,0.576,-0.226,0.571,-0.196C0.568,-0.181,0.564,-0.167,0.559,-0.155C0.554,-0.143,0.547,-0.131,0.539,-0.118C0.518,-0.085,0.489,-0.057,0.452,-0.035C0.415,-0.012,0.37,0,0.317,0L0.075,0L0.075,-0.712ZM0.183,-0.102L0.312,-0.102C0.373,-0.102,0.417,-0.123,0.444,-0.164C0.456,-0.179,0.464,-0.199,0.467,-0.222C0.47,-0.245,0.471,-0.289,0.471,-0.352C0.471,-0.414,0.47,-0.458,0.467,-0.485C0.463,-0.512,0.454,-0.533,0.439,-0.55C0.409,-0.591,0.367,-0.611,0.312,-0.61L0.183,-0.61L0.183,-0.102Z" fill-rule="nonzero"/>
        </g>
        <g transform="translate(655.111,391.292) scale(122.421,122.421)">
            <path d="M0.332,-0.045L0.33,-0.045C0.321,-0.028,0.306,-0.015,0.286,-0.007C0.267,0.002,0.24,0.006,0.205,0.006C0.148,0.005,0.105,-0.01,0.074,-0.039C0.042,-0.068,0.026,-0.104,0.026,-0.149C0.026,-0.192,0.04,-0.227,0.068,-0.255C0.096,-0.284,0.137,-0.298,0.191,-0.299L0.332,-0.299L0.332,-0.352C0.333,-0.397,0.298,-0.418,0.228,-0.417C0.203,-0.417,0.183,-0.414,0.168,-0.409C0.153,-0.403,0.141,-0.393,0.132,-0.378L0.052,-0.439C0.09,-0.49,0.148,-0.514,0.223,-0.513C0.287,-0.514,0.338,-0.502,0.376,-0.477C0.414,-0.452,0.433,-0.408,0.434,-0.346L0.434,0L0.332,0L0.332,-0.045ZM0.332,-0.215L0.21,-0.215C0.151,-0.214,0.121,-0.193,0.122,-0.154C0.122,-0.137,0.13,-0.122,0.145,-0.11C0.16,-0.097,0.184,-0.09,0.218,-0.09C0.26,-0.089,0.291,-0.094,0.308,-0.105C0.324,-0.116,0.332,-0.14,0.332,-0.178L0.332,-0.215Z" fill-rule="nonzero"/>
        </g>
        <g transform="translate(716.322,391.292) scale(122.421,122.421)">
            <path d="M0.072,-0.661L0.174,-0.661L0.174,-0.507L0.248,-0.507L0.248,-0.429L0.174,-0.429L0.174,-0.134C0.173,-0.108,0.185,-0.096,0.21,-0.096L0.248,-0.096L0.248,0L0.195,0C0.159,0,0.13,-0.011,0.107,-0.033C0.083,-0.054,0.072,-0.085,0.072,-0.125L0.072,-0.429L0.021,-0.429L0.021,-0.507L0.072,-0.507L0.072,-0.661Z" fill-rule="nonzero"/>
        </g>
        <g transform="translate(750.334,391.292) scale(122.421,122.421)">
            <path d="M0.332,-0.045L0.33,-0.045C0.321,-0.028,0.306,-0.015,0.286,-0.007C0.267,0.002,0.24,0.006,0.205,0.006C0.148,0.005,0.105,-0.01,0.074,-0.039C0.042,-0.068,0.026,-0.104,0.026,-0.149C0.026,-0.192,0.04,-0.227,0.068,-0.255C0.096,-0.284,0.137,-0.298,0.191,-0.299L0.332,-0.299L0.332,-0.352C0.333,-0.397,0.298,-0.418,0.228,-0.417C0.203,-0.417,0.183,-0.414,0.168,-0.409C0.153,-0.403,0.141,-0.393,0.132,-0.378L0.052,-0.439C0.09,-0.49,0.148,-0.514,0.223,-0.513C0.287,-0.514,0.338,-0.502,0.376,-0.477C0.414,-0.452,0.433,-0.408,0.434,-0.346L0.434,0L0.332,0L0.332,-0.045ZM0.332,-0.215L0.21,-0.215C0.151,-0.214,0.121,-0.193,0.122,-0.154C0.122,-0.137,0.13,-0.122,0.145,-0.11C0.16,-0.097,0.184,-0.09,0.218,-0.09C0.26,-0.089,0.291,-0.094,0.308,-0.105C0.324,-0.116,0.332,-0.14,0.332,-0.178L0.332,-0.215Z" fill-rule="nonzero"/>
        </g>
        <g transform="translate(811.545,391.292) scale(122.421,122.421)">
            <path d="M-0.006,-0.507L0.102,-0.507L0.221,-0.152L0.223,-0.152L0.342,-0.507L0.45,-0.507L0.264,0L0.18,0L-0.006,-0.507Z" fill-rule="nonzero"/>
        </g>
        <g transform="translate(865.881,391.292) scale(122.421,122.421)">
            <path d="M0.069,-0.507L0.171,-0.507L0.171,0L0.069,0L0.069,-0.507ZM0.069,-0.712L0.171,-0.712L0.171,-0.61L0.069,-0.61L0.069,-0.712Z" fill-rule="nonzero"/>
        </g>
        <g transform="translate(895.231,391.292) scale(122.421,122.421)">
            <path d="M0.033,-0.081L0.287,-0.417L0.047,-0.417L0.047,-0.507L0.411,-0.507L0.411,-0.426L0.157,-0.096L0.411,-0.096L0.411,0L0.033,0L0.033,-0.081Z" fill-rule="nonzero"/>
        </g>
    </g>
    <g id="Arrow" opacity="0" transform="translate(-410.105,-270.547) scale(1.134,1.13523)" style="animation: 0.9s linear both Arrow_t, 0.9s linear both Arrow_o;">
        <path d="M400.955,323.261C402.18,323.357,402.893,323.43,404.537,324.322L437.013,343.072C438.111,343.745,438.253,343.927,438.67,344.343C440.152,345.826,440.957,347.885,441.013,350L441.013,387.5C440.852,393.619,432.637,397.927,427.66,393.445C425.999,391.95,425.072,389.751,425.013,387.5L425.013,354.619L396.537,338.178C396.537,338.178,393.623,336.359,392.809,333.321C391.587,328.757,395.224,323.517,400.118,323.261C400.397,323.246,400.676,323.254,400.955,323.261Z" fill="rgb(35,114,186)" fill-opacity="0.64"/>
    </g>
    <g id="Logo" opacity="0" transform="translate(100.69,105) rotate(60) scale(0.875003,0.875003) translate(-519.715,-300.872)" style="animation: 0.9s linear both Logo_t, 0.9s linear both Logo_o;">
        <path d="M520.555,187.464C522.422,187.674,524.212,188.22,525.901,189.113L612.503,239.113C616.269,241.479,618.619,245.462,618.789,250L618.789,350C618.623,354.445,616.349,358.471,612.503,360.887L519.615,414.286L494.872,400L593.646,342.742L593.646,257.258L519.615,214.516L420.641,271.429L420.641,242.857L513.33,189.113C513.33,189.113,517.392,187.345,520.555,187.464Z" fill="rgb(35,114,186)"/>
    </g>
</svg>
