<svg width="691" height="294" viewBox="0 0 691 294" fill="none" xmlns="http://www.w3.org/2000/svg">
<rect width="691" height="293.5" fill="black" fill-opacity="0"/>
<path fill-rule="evenodd" clip-rule="evenodd" d="M126.5 0L253.5 73.5L217.954 93.8795L218.064 94.0598L129.5 148.182V250.24L216 199.5L253.5 221L126.5 293.5L0 221V73.5L126.5 0ZM123.5 250.26V144.818L210.291 91.7786L126.5 44.5L36 95V199.5L123.5 250.26Z" fill="white"/>
<path d="M255.194 186.691V106.017H278.945C286.052 106.017 292.349 107.605 297.836 110.782C303.359 113.958 307.631 118.465 310.65 124.301C313.67 130.138 315.18 136.823 315.18 144.359V148.404C315.18 156.05 313.652 162.773 310.595 168.572C307.576 174.372 303.249 178.841 297.615 181.981C292.018 185.121 285.592 186.691 278.338 186.691H255.194ZM269.169 117.32V175.498H278.283C285.611 175.498 291.226 173.208 295.129 168.628C299.069 164.01 301.076 157.398 301.15 148.792V144.303C301.15 135.549 299.254 128.863 295.461 124.246C291.668 119.628 286.163 117.32 278.945 117.32H269.169Z" fill="white"/>
<path d="M372.901 167.907H341.748L335.23 186.691H320.703L351.083 106.017H363.621L394.056 186.691H379.474L372.901 167.907ZM345.67 156.604H368.979L357.324 123.138L345.67 156.604Z" fill="white"/>
<path d="M454.704 117.32H429.627V186.691H415.763V117.32H390.907V106.017H454.704V117.32Z" fill="white"/>
<path d="M503.697 167.907H472.545L466.027 186.691H451.5L481.88 106.017H494.418L524.853 186.691H510.27L503.697 167.907ZM476.467 156.604H499.776L488.121 123.138L476.467 156.604Z" fill="white"/>
<path d="M558.049 169.126L578.486 106.017H593.841L564.898 186.691H551.365L522.533 106.017H537.833L558.049 169.126Z" fill="white"/>
<path d="M617.703 186.691H603.784V106.017H617.703V186.691Z" fill="white"/>
<path d="M648.027 175.498H691V186.691H631.125V177.604L672.717 117.32H631.401V106.017H689.674V114.882L648.027 175.498Z" fill="white"/>
</svg>
