<svg width="264" height="280" viewBox="0 0 264 280" fill="none" xmlns="http://www.w3.org/2000/svg">
<path fill-rule="evenodd" clip-rule="evenodd" d="M132 280C198.274 280 252 226.274 252 160C252 93.7258 198.274 40 132 40C65.7258 40 12 93.7258 12 160C12 226.274 65.7258 280 132 280Z" fill="#E6E6E6"/>
<mask id="mask0" mask-type="alpha" maskUnits="userSpaceOnUse" x="12" y="40" width="240" height="240">
<path fill-rule="evenodd" clip-rule="evenodd" d="M132 280C198.274 280 252 226.274 252 160C252 93.7258 198.274 40 132 40C65.7258 40 12 93.7258 12 160C12 226.274 65.7258 280 132 280Z" fill="white"/>
</mask>
<g mask="url(#mask0)">
<path fill-rule="evenodd" clip-rule="evenodd" d="M12 40H252V280H12V40Z" fill="#63879A"/>
</g>
<mask id="mask1" mask-type="alpha" maskUnits="userSpaceOnUse" x="0" y="0" width="264" height="280">
<path fill-rule="evenodd" clip-rule="evenodd" d="M264 0H0V160H12C12 226.274 65.7258 280 132 280C198.274 280 252 226.274 252 160H264V0Z" fill="white"/>
</mask>
<g mask="url(#mask1)">
<path fill-rule="evenodd" clip-rule="evenodd" d="M132 36C101.072 36 76 61.0721 76 92V98.1659C70.3246 99.1181 66 104.054 66 110V124C66 130.052 70.4803 135.058 76.3051 135.881C78.3722 155.687 90.7626 172.422 108 180.611V199H104C64.2355 199 32 231.236 32 271V280H232V271C232 231.236 199.764 199 160 199H156V180.611C173.237 172.422 185.628 155.687 187.695 135.881C193.52 135.058 198 130.052 198 124V110C198 104.054 193.675 99.1181 188 98.1659V92C188 61.0721 162.928 36 132 36Z" fill="#C6B485"/>
<mask id="mask2" mask-type="alpha" maskUnits="userSpaceOnUse" x="32" y="36" width="200" height="244">
<path fill-rule="evenodd" clip-rule="evenodd" d="M132 36C101.072 36 76 61.0721 76 92V98.1659C70.3246 99.1181 66 104.054 66 110V124C66 130.052 70.4803 135.058 76.3051 135.881C78.3722 155.687 90.7626 172.422 108 180.611V199H104C64.2355 199 32 231.236 32 271V280H232V271C232 231.236 199.764 199 160 199H156V180.611C173.237 172.422 185.628 155.687 187.695 135.881C193.52 135.058 198 130.052 198 124V110C198 104.054 193.675 99.1181 188 98.1659V92C188 61.0721 162.928 36 132 36Z" fill="white"/>
</mask>
<g mask="url(#mask2)">
<path fill-rule="evenodd" clip-rule="evenodd" d="M0 36H264V280H0V36Z" fill="#614335"/>
<path fill-rule="evenodd" clip-rule="evenodd" d="M76 130V138C76 168.928 101.072 194 132 194C162.928 194 188 168.928 188 138V130C188 160.928 162.928 186 132 186C101.072 186 76 160.928 76 130Z" fill="black" fill-opacity="0.1"/>
</g>
<path fill-rule="evenodd" clip-rule="evenodd" d="M166 200.348C166 212.211 151.002 221.828 132.5 221.828C113.998 221.828 99 212.211 99 200.348C99 199.969 99.0153 199.593 99.0454 199.219C61.592 201.765 32 232.953 32 271.052V280H232V271.052C232 233.294 202.936 202.325 165.96 199.295C165.987 199.644 166 199.995 166 200.348Z" fill="#E6E6E6"/>
<mask id="mask3" mask-type="alpha" maskUnits="userSpaceOnUse" x="32" y="199" width="200" height="81">
<path fill-rule="evenodd" clip-rule="evenodd" d="M166 200.348C166 212.211 151.002 221.828 132.5 221.828C113.998 221.828 99 212.211 99 200.348C99 199.969 99.0153 199.593 99.0454 199.219C61.592 201.765 32 232.953 32 271.052V280H232V271.052C232 233.294 202.936 202.325 165.96 199.295C165.987 199.644 166 199.995 166 200.348Z" fill="white"/>
</mask>
<g mask="url(#mask3)">
<path fill-rule="evenodd" clip-rule="evenodd" d="M0 170H264V280H0V170Z" fill="#E6E6E6"/>
<g opacity="0.6">
<path fill-rule="evenodd" clip-rule="evenodd" d="M132.5 228.761C154.39 228.761 172.135 216.712 172.135 201.848C172.135 186.984 154.39 174.934 132.5 174.934C110.61 174.934 92.8649 186.984 92.8649 201.848C92.8649 216.712 110.61 228.761 132.5 228.761Z" fill="black" fill-opacity="0.16"/>
</g>
</g>
<path fill-rule="evenodd" clip-rule="evenodd" d="M163.638 280H232V271.052C232 232.707 202.025 201.363 164.229 199.174C167.265 210.771 169 224.194 169 238.5C169 253.709 167.039 267.92 163.638 280ZM100.785 199.122C97.74 210.731 96 224.173 96 238.5C96 253.709 97.9607 267.92 101.362 280H32V271.052C32 232.365 62.5123 200.804 100.785 199.122Z" fill="#3A4C5A"/>
<path fill-rule="evenodd" clip-rule="evenodd" d="M181 256L190.556 248.833C191.999 247.751 193.988 247.768 195.412 248.876L202 254L181 256Z" fill="#E6E6E6"/>
<path fill-rule="evenodd" clip-rule="evenodd" d="M101 198C95 227 106 280 106 280H90L76 244L82 235L76 229L95 199C95 199 98.0415 198.054 101 198Z" fill="#2F4351"/>
<path fill-rule="evenodd" clip-rule="evenodd" d="M163 198C169 227 158 280 158 280H174L188 244L182 235L188 229L169 199C169 199 165.959 198.054 163 198Z" fill="#2F4351"/>
<path fill-rule="evenodd" clip-rule="evenodd" d="M249 70.5C249 71.2993 248.967 72.0909 248.903 72.8735C255.882 82.4492 260 94.2437 260 107C260 114.157 258.704 121.012 256.333 127.341C256.77 129.325 257 131.385 257 133.5C257 143.288 252.066 151.924 244.549 157.055C235.837 174.792 217.594 187 196.5 187C194.537 187 192.598 186.894 190.69 186.688C184.384 191.881 176.306 195 167.5 195C163.482 195 159.616 194.351 156 193.151V180.611C173.531 172.283 186.048 155.115 187.791 134.867C193.569 134.002 198 129.019 198 123V110C198 104.054 193.675 99.1181 188 98.1659V92C188 86.5586 187.224 81.2984 185.776 76.3242L187.153 89.1947L175.813 65.1946L130.677 45.6707L100.563 56.2284L79.0648 76.4194L79.0203 73.8104C77.0627 79.5136 76 85.6327 76 92V98.1659C70.3246 99.1181 66 104.054 66 110V123C66 129.019 70.4309 134.002 76.2086 134.867C77.9518 155.115 90.4692 172.283 108 180.611V191.555C103.295 193.765 98.0419 195 92.5 195C83.6937 195 75.6157 191.881 69.3104 186.688C67.4019 186.894 65.4633 187 63.5 187C42.4056 187 24.1626 174.792 15.4511 157.055C7.93428 151.924 3 143.288 3 133.5C3 131.385 3.2303 129.325 3.66717 127.341C1.29639 121.012 0 114.157 0 107C0 94.2437 4.11812 82.4492 11.0974 72.8735C11.0329 72.0909 11 71.2993 11 70.5C11 59.2025 17.5735 49.4403 27.1043 44.8296C35.5367 26.7017 53.5577 13.9359 74.6501 13.0493C79.7819 8.06731 86.7827 5 94.5 5C96.827 5 99.0888 5.27888 101.254 5.80503C110.776 2.058 121.148 0 132 0C142.346 0 152.255 1.87044 161.408 5.29161C162.744 5.09945 164.11 5 165.5 5C173.217 5 180.218 8.06731 185.35 13.0493C206.442 13.9359 224.463 26.7017 232.896 44.8296C242.427 49.4403 249 59.2025 249 70.5Z" fill="#314756"/>
<mask id="mask4" mask-type="alpha" maskUnits="userSpaceOnUse" x="0" y="0" width="260" height="195">
<path fill-rule="evenodd" clip-rule="evenodd" d="M249 70.5C249 71.2993 248.967 72.0909 248.903 72.8735C255.882 82.4492 260 94.2437 260 107C260 114.157 258.704 121.012 256.333 127.341C256.77 129.325 257 131.385 257 133.5C257 143.288 252.066 151.924 244.549 157.055C235.837 174.792 217.594 187 196.5 187C194.537 187 192.598 186.894 190.69 186.688C184.384 191.881 176.306 195 167.5 195C163.482 195 159.616 194.351 156 193.151V180.611C173.531 172.283 186.048 155.115 187.791 134.867C193.569 134.002 198 129.019 198 123V110C198 104.054 193.675 99.1181 188 98.1659V92C188 86.5586 187.224 81.2984 185.776 76.3242L187.153 89.1947L175.813 65.1946L130.677 45.6707L100.563 56.2284L79.0648 76.4194L79.0203 73.8104C77.0627 79.5136 76 85.6327 76 92V98.1659C70.3246 99.1181 66 104.054 66 110V123C66 129.019 70.4309 134.002 76.2086 134.867C77.9518 155.115 90.4692 172.283 108 180.611V191.555C103.295 193.765 98.0419 195 92.5 195C83.6937 195 75.6157 191.881 69.3104 186.688C67.4019 186.894 65.4633 187 63.5 187C42.4056 187 24.1626 174.792 15.4511 157.055C7.93428 151.924 3 143.288 3 133.5C3 131.385 3.2303 129.325 3.66717 127.341C1.29639 121.012 0 114.157 0 107C0 94.2437 4.11812 82.4492 11.0974 72.8735C11.0329 72.0909 11 71.2993 11 70.5C11 59.2025 17.5735 49.4403 27.1043 44.8296C35.5367 26.7017 53.5577 13.9359 74.6501 13.0493C79.7819 8.06731 86.7827 5 94.5 5C96.827 5 99.0888 5.27888 101.254 5.80503C110.776 2.058 121.148 0 132 0C142.346 0 152.255 1.87044 161.408 5.29161C162.744 5.09945 164.11 5 165.5 5C173.217 5 180.218 8.06731 185.35 13.0493C206.442 13.9359 224.463 26.7017 232.896 44.8296C242.427 49.4403 249 59.2025 249 70.5Z" fill="white"/>
</mask>
<g mask="url(#mask4)">
<path fill-rule="evenodd" clip-rule="evenodd" d="M0 0H264V280H0V0Z" fill="#2C1B18"/>
</g>
<path fill-rule="evenodd" clip-rule="evenodd" d="M75.6314 98.975C79.7204 73.8832 103.176 54.6457 131.5 54.6457C159.824 54.6457 183.28 73.8832 187.369 98.975C187.784 96.4232 188 93.8109 188 91.1522C188 62.3493 162.704 39 131.5 39C100.296 39 75 62.3493 75 91.1522C75 93.8109 75.2155 96.4232 75.6314 98.975Z" fill="#2E4B5B"/>
<g filter="url(#filter0_d)">
<path fill-rule="evenodd" clip-rule="evenodd" d="M103.183 130.222C90.8617 130.222 80.8733 120.273 80.8733 108C80.8733 105.745 81.2104 103.569 81.8371 101.519H75.7515C74.473 101.519 73.4366 100.482 73.4366 99.2038C73.4366 97.9253 74.473 96.8889 75.7515 96.8889H83.2063C83.4158 96.8889 83.6187 96.9168 83.8117 96.9689C87.6576 90.2826 94.8922 85.7778 103.183 85.7778C111.877 85.7778 119.409 90.7308 123.091 97.9583C125.022 95.0735 128.235 93.1852 131.872 93.1852C135.602 93.1852 138.885 95.1705 140.798 98.1798C144.438 90.8322 152.035 85.7778 160.817 85.7778C169.108 85.7778 176.342 90.2826 180.188 96.9689C180.381 96.9168 180.584 96.8889 180.794 96.8889H188.249C189.527 96.8889 190.563 97.9253 190.563 99.2038C190.563 100.482 189.527 101.519 188.249 101.519H182.163C182.79 103.569 183.127 105.745 183.127 108C183.127 120.273 173.138 130.222 160.817 130.222C148.496 130.222 138.507 120.273 138.507 108C138.507 106.683 138.622 105.394 138.842 104.14C138.764 100.088 135.638 96.8889 131.872 96.8889C128.399 96.8889 125.469 99.6109 124.974 103.213C125.314 104.755 125.493 106.357 125.493 108C125.493 120.273 115.505 130.222 103.183 130.222ZM103.183 126.519C113.451 126.519 121.775 118.228 121.775 108C121.775 97.7726 113.451 89.4815 103.183 89.4815C92.9153 89.4815 84.5916 97.7726 84.5916 108C84.5916 118.228 92.9153 126.519 103.183 126.519ZM179.408 108C179.408 118.228 171.085 126.519 160.817 126.519C150.549 126.519 142.225 118.228 142.225 108C142.225 97.7726 150.549 89.4815 160.817 89.4815C171.085 89.4815 179.408 97.7726 179.408 108Z" fill="#2C1B18"/>
</g>
<path fill-rule="evenodd" clip-rule="evenodd" d="M118 149C118 156.732 124.268 163 132 163C139.732 163 146 156.732 146 149" fill="black" fill-opacity="0.7"/>
<path fill-rule="evenodd" clip-rule="evenodd" d="M120 130C120 134.418 125.373 138 132 138C138.627 138 144 134.418 144 130" fill="black" fill-opacity="0.16"/>
<path fill-rule="evenodd" clip-rule="evenodd" d="M106 118C109.314 118 112 115.314 112 112C112 108.686 109.314 106 106 106C102.686 106 100 108.686 100 112C100 115.314 102.686 118 106 118Z" fill="black" fill-opacity="0.6"/>
<path fill-rule="evenodd" clip-rule="evenodd" d="M158 118C161.314 118 164 115.314 164 112C164 108.686 161.314 106 158 106C154.686 106 152 108.686 152 112C152 115.314 154.686 118 158 118Z" fill="black" fill-opacity="0.6"/>
<path fill-rule="evenodd" clip-rule="evenodd" d="M102.547 74.1485C96.7403 74.4167 87.3522 78.6363 87.5941 84.4923C87.6021 84.6839 87.8836 84.7681 88.0211 84.6207C90.776 81.6614 110.336 78.671 117.226 80.2557C117.857 80.4009 118.336 79.7789 117.936 79.3295C114.514 75.4813 107.75 73.9031 102.547 74.1485Z" fill="black" fill-opacity="0.6"/>
<path fill-rule="evenodd" clip-rule="evenodd" d="M162.453 74.1485C168.26 74.4167 177.648 78.6363 177.406 84.4923C177.398 84.6839 177.116 84.7681 176.979 84.6207C174.224 81.6614 154.663 78.671 147.774 80.2557C147.143 80.4009 146.664 79.7789 147.064 79.3295C150.486 75.4813 157.25 73.9031 162.453 74.1485Z" fill="black" fill-opacity="0.6"/>
</g>
<defs>
<filter id="filter0_d" x="73.4366" y="85.7778" width="117.127" height="46.4444" filterUnits="userSpaceOnUse" color-interpolation-filters="sRGB">
<feFlood flood-opacity="0" result="BackgroundImageFix"/>
<feColorMatrix in="SourceAlpha" type="matrix" values="0 0 0 0 0 0 0 0 0 0 0 0 0 0 0 0 0 0 127 0"/>
<feOffset dy="2"/>
<feColorMatrix type="matrix" values="0 0 0 0 0 0 0 0 0 0 0 0 0 0 0 0 0 0 0.1 0"/>
<feBlend mode="normal" in2="BackgroundImageFix" result="effect1_dropShadow"/>
<feBlend mode="normal" in="SourceGraphic" in2="effect1_dropShadow" result="shape"/>
</filter>
</defs>
</svg>
